<svg xmlns="http://www.w3.org/2000/svg" xmlns:xlink="http://www.w3.org/1999/xlink" width="48" zoomAndPan="magnify" viewBox="0 0 36 36.000001" height="48" preserveAspectRatio="xMidYMid meet" version="1.0"><defs><clipPath id="e779f28151"><path d="M 0.488281 0 L 35.511719 0 L 35.511719 35.027344 L 0.488281 35.027344 Z M 0.488281 0 " clip-rule="nonzero"/></clipPath><clipPath id="6804f27da1"><path d="M 0.488281 0 L 35.511719 0 L 35.511719 35.027344 L 0.488281 35.027344 Z M 0.488281 0 " clip-rule="nonzero"/></clipPath><clipPath id="6ff9125699"><path d="M 18 0 C 8.328125 0 0.488281 7.839844 0.488281 17.511719 C 0.488281 27.1875 8.328125 35.027344 18 35.027344 C 27.671875 35.027344 35.511719 27.1875 35.511719 17.511719 C 35.511719 7.839844 27.671875 0 18 0 Z M 18 0 " clip-rule="nonzero"/></clipPath><radialGradient gradientTransform="matrix(1, 0, 0, 1, 0.486486, 0.00000194595)" gradientUnits="userSpaceOnUse" r="49.535743" cx="0" id="d8b4ecba44" cy="0" fx="0" fy="0"><stop stop-opacity="1" stop-color="rgb(32.835388%, 3.491211%, 58.683777%)" offset="0"/><stop stop-opacity="1" stop-color="rgb(32.705688%, 3.477478%, 58.454895%)" offset="0.00390625"/><stop stop-opacity="1" stop-color="rgb(32.577515%, 3.463745%, 58.224487%)" offset="0.0078125"/><stop stop-opacity="1" stop-color="rgb(32.449341%, 3.450012%, 57.995605%)" offset="0.0117188"/><stop stop-opacity="1" stop-color="rgb(32.321167%, 3.436279%, 57.765198%)" offset="0.015625"/><stop stop-opacity="1" stop-color="rgb(32.192993%, 3.424072%, 57.536316%)" offset="0.0195312"/><stop stop-opacity="1" stop-color="rgb(32.063293%, 3.410339%, 57.305908%)" offset="0.0234375"/><stop stop-opacity="1" stop-color="rgb(31.93512%, 3.396606%, 57.0755%)" offset="0.0273438"/><stop stop-opacity="1" stop-color="rgb(31.806946%, 3.382874%, 56.846619%)" offset="0.03125"/><stop stop-opacity="1" stop-color="rgb(31.678772%, 3.369141%, 56.616211%)" offset="0.0351562"/><stop stop-opacity="1" stop-color="rgb(31.549072%, 3.355408%, 56.387329%)" offset="0.0390625"/><stop stop-opacity="1" stop-color="rgb(31.420898%, 3.341675%, 56.156921%)" offset="0.0429688"/><stop stop-opacity="1" stop-color="rgb(31.292725%, 3.327942%, 55.92804%)" offset="0.046875"/><stop stop-opacity="1" stop-color="rgb(31.164551%, 3.314209%, 55.697632%)" offset="0.0507812"/><stop stop-opacity="1" stop-color="rgb(31.034851%, 3.300476%, 55.46875%)" offset="0.0546875"/><stop stop-opacity="1" stop-color="rgb(30.906677%, 3.286743%, 55.238342%)" offset="0.0585938"/><stop stop-opacity="1" stop-color="rgb(30.778503%, 3.27301%, 55.00946%)" offset="0.0625"/><stop stop-opacity="1" stop-color="rgb(30.65033%, 3.259277%, 54.779053%)" offset="0.0664062"/><stop stop-opacity="1" stop-color="rgb(30.522156%, 3.245544%, 54.550171%)" offset="0.0703125"/><stop stop-opacity="1" stop-color="rgb(30.392456%, 3.231812%, 54.319763%)" offset="0.0742188"/><stop stop-opacity="1" stop-color="rgb(30.264282%, 3.218079%, 54.090881%)" offset="0.078125"/><stop stop-opacity="1" stop-color="rgb(30.136108%, 3.204346%, 53.860474%)" offset="0.0820312"/><stop stop-opacity="1" stop-color="rgb(30.007935%, 3.190613%, 53.631592%)" offset="0.0859375"/><stop stop-opacity="1" stop-color="rgb(29.878235%, 3.17688%, 53.401184%)" offset="0.0898438"/><stop stop-opacity="1" stop-color="rgb(29.750061%, 3.163147%, 53.170776%)" offset="0.09375"/><stop stop-opacity="1" stop-color="rgb(29.621887%, 3.149414%, 52.941895%)" offset="0.0976562"/><stop stop-opacity="1" stop-color="rgb(29.493713%, 3.135681%, 52.711487%)" offset="0.101562"/><stop stop-opacity="1" stop-color="rgb(29.36554%, 3.121948%, 52.482605%)" offset="0.105469"/><stop stop-opacity="1" stop-color="rgb(29.23584%, 3.108215%, 52.252197%)" offset="0.109375"/><stop stop-opacity="1" stop-color="rgb(29.107666%, 3.094482%, 52.023315%)" offset="0.113281"/><stop stop-opacity="1" stop-color="rgb(28.979492%, 3.082275%, 51.792908%)" offset="0.117188"/><stop stop-opacity="1" stop-color="rgb(28.851318%, 3.068542%, 51.564026%)" offset="0.121094"/><stop stop-opacity="1" stop-color="rgb(28.721619%, 3.05481%, 51.333618%)" offset="0.125"/><stop stop-opacity="1" stop-color="rgb(28.593445%, 3.041077%, 51.104736%)" offset="0.128906"/><stop stop-opacity="1" stop-color="rgb(28.465271%, 3.027344%, 50.874329%)" offset="0.132812"/><stop stop-opacity="1" stop-color="rgb(28.337097%, 3.013611%, 50.645447%)" offset="0.136719"/><stop stop-opacity="1" stop-color="rgb(28.208923%, 2.999878%, 50.415039%)" offset="0.140625"/><stop stop-opacity="1" stop-color="rgb(28.079224%, 2.986145%, 50.186157%)" offset="0.144531"/><stop stop-opacity="1" stop-color="rgb(27.95105%, 2.972412%, 49.95575%)" offset="0.148438"/><stop stop-opacity="1" stop-color="rgb(27.822876%, 2.958679%, 49.726868%)" offset="0.152344"/><stop stop-opacity="1" stop-color="rgb(27.694702%, 2.944946%, 49.49646%)" offset="0.15625"/><stop stop-opacity="1" stop-color="rgb(27.565002%, 2.931213%, 49.266052%)" offset="0.160156"/><stop stop-opacity="1" stop-color="rgb(27.436829%, 2.91748%, 49.03717%)" offset="0.164062"/><stop stop-opacity="1" stop-color="rgb(27.308655%, 2.903748%, 48.806763%)" offset="0.167969"/><stop stop-opacity="1" stop-color="rgb(27.180481%, 2.890015%, 48.577881%)" offset="0.171875"/><stop stop-opacity="1" stop-color="rgb(27.052307%, 2.876282%, 48.347473%)" offset="0.175781"/><stop stop-opacity="1" stop-color="rgb(26.922607%, 2.862549%, 48.118591%)" offset="0.179688"/><stop stop-opacity="1" stop-color="rgb(26.794434%, 2.848816%, 47.888184%)" offset="0.183594"/><stop stop-opacity="1" stop-color="rgb(26.66626%, 2.835083%, 47.659302%)" offset="0.1875"/><stop stop-opacity="1" stop-color="rgb(26.538086%, 2.82135%, 47.428894%)" offset="0.191406"/><stop stop-opacity="1" stop-color="rgb(26.408386%, 2.807617%, 47.200012%)" offset="0.195312"/><stop stop-opacity="1" stop-color="rgb(26.280212%, 2.793884%, 46.969604%)" offset="0.199219"/><stop stop-opacity="1" stop-color="rgb(26.152039%, 2.780151%, 46.740723%)" offset="0.203125"/><stop stop-opacity="1" stop-color="rgb(26.023865%, 2.766418%, 46.510315%)" offset="0.207031"/><stop stop-opacity="1" stop-color="rgb(25.895691%, 2.752686%, 46.281433%)" offset="0.210938"/><stop stop-opacity="1" stop-color="rgb(25.765991%, 2.740479%, 46.051025%)" offset="0.214844"/><stop stop-opacity="1" stop-color="rgb(25.637817%, 2.726746%, 45.822144%)" offset="0.21875"/><stop stop-opacity="1" stop-color="rgb(25.509644%, 2.713013%, 45.591736%)" offset="0.222656"/><stop stop-opacity="1" stop-color="rgb(25.38147%, 2.69928%, 45.362854%)" offset="0.226562"/><stop stop-opacity="1" stop-color="rgb(25.25177%, 2.685547%, 45.132446%)" offset="0.230469"/><stop stop-opacity="1" stop-color="rgb(25.123596%, 2.671814%, 44.902039%)" offset="0.234375"/><stop stop-opacity="1" stop-color="rgb(24.995422%, 2.658081%, 44.673157%)" offset="0.238281"/><stop stop-opacity="1" stop-color="rgb(24.867249%, 2.644348%, 44.442749%)" offset="0.242188"/><stop stop-opacity="1" stop-color="rgb(24.739075%, 2.630615%, 44.213867%)" offset="0.246094"/><stop stop-opacity="1" stop-color="rgb(24.609375%, 2.616882%, 43.983459%)" offset="0.25"/><stop stop-opacity="1" stop-color="rgb(24.481201%, 2.603149%, 43.754578%)" offset="0.253906"/><stop stop-opacity="1" stop-color="rgb(24.353027%, 2.589417%, 43.52417%)" offset="0.257812"/><stop stop-opacity="1" stop-color="rgb(24.224854%, 2.575684%, 43.295288%)" offset="0.261719"/><stop stop-opacity="1" stop-color="rgb(24.095154%, 2.561951%, 43.06488%)" offset="0.265625"/><stop stop-opacity="1" stop-color="rgb(23.96698%, 2.548218%, 42.835999%)" offset="0.269531"/><stop stop-opacity="1" stop-color="rgb(23.838806%, 2.534485%, 42.605591%)" offset="0.273438"/><stop stop-opacity="1" stop-color="rgb(23.710632%, 2.520752%, 42.376709%)" offset="0.277344"/><stop stop-opacity="1" stop-color="rgb(23.580933%, 2.507019%, 42.146301%)" offset="0.28125"/><stop stop-opacity="1" stop-color="rgb(23.452759%, 2.493286%, 41.917419%)" offset="0.285156"/><stop stop-opacity="1" stop-color="rgb(23.324585%, 2.479553%, 41.687012%)" offset="0.289062"/><stop stop-opacity="1" stop-color="rgb(23.196411%, 2.46582%, 41.45813%)" offset="0.292969"/><stop stop-opacity="1" stop-color="rgb(23.068237%, 2.452087%, 41.227722%)" offset="0.296875"/><stop stop-opacity="1" stop-color="rgb(22.938538%, 2.438354%, 40.997314%)" offset="0.300781"/><stop stop-opacity="1" stop-color="rgb(22.810364%, 2.424622%, 40.768433%)" offset="0.304688"/><stop stop-opacity="1" stop-color="rgb(22.68219%, 2.410889%, 40.538025%)" offset="0.308594"/><stop stop-opacity="1" stop-color="rgb(22.554016%, 2.398682%, 40.309143%)" offset="0.3125"/><stop stop-opacity="1" stop-color="rgb(22.424316%, 2.384949%, 40.078735%)" offset="0.316406"/><stop stop-opacity="1" stop-color="rgb(22.296143%, 2.371216%, 39.849854%)" offset="0.320312"/><stop stop-opacity="1" stop-color="rgb(22.167969%, 2.357483%, 39.619446%)" offset="0.324219"/><stop stop-opacity="1" stop-color="rgb(22.039795%, 2.34375%, 39.390564%)" offset="0.328125"/><stop stop-opacity="1" stop-color="rgb(21.911621%, 2.330017%, 39.160156%)" offset="0.332031"/><stop stop-opacity="1" stop-color="rgb(21.781921%, 2.316284%, 38.931274%)" offset="0.335938"/><stop stop-opacity="1" stop-color="rgb(21.653748%, 2.302551%, 38.700867%)" offset="0.339844"/><stop stop-opacity="1" stop-color="rgb(21.525574%, 2.288818%, 38.471985%)" offset="0.34375"/><stop stop-opacity="1" stop-color="rgb(21.3974%, 2.275085%, 38.241577%)" offset="0.347656"/><stop stop-opacity="1" stop-color="rgb(21.2677%, 2.261353%, 38.012695%)" offset="0.351562"/><stop stop-opacity="1" stop-color="rgb(21.139526%, 2.24762%, 37.782288%)" offset="0.355469"/><stop stop-opacity="1" stop-color="rgb(21.011353%, 2.233887%, 37.553406%)" offset="0.359375"/><stop stop-opacity="1" stop-color="rgb(20.883179%, 2.220154%, 37.322998%)" offset="0.363281"/><stop stop-opacity="1" stop-color="rgb(20.755005%, 2.206421%, 37.094116%)" offset="0.367188"/><stop stop-opacity="1" stop-color="rgb(20.625305%, 2.192688%, 36.863708%)" offset="0.371094"/><stop stop-opacity="1" stop-color="rgb(20.497131%, 2.178955%, 36.633301%)" offset="0.375"/><stop stop-opacity="1" stop-color="rgb(20.368958%, 2.165222%, 36.404419%)" offset="0.378906"/><stop stop-opacity="1" stop-color="rgb(20.240784%, 2.151489%, 36.174011%)" offset="0.382812"/><stop stop-opacity="1" stop-color="rgb(20.111084%, 2.137756%, 35.945129%)" offset="0.386719"/><stop stop-opacity="1" stop-color="rgb(19.98291%, 2.124023%, 35.714722%)" offset="0.390625"/><stop stop-opacity="1" stop-color="rgb(19.854736%, 2.110291%, 35.48584%)" offset="0.394531"/><stop stop-opacity="1" stop-color="rgb(19.726562%, 2.096558%, 35.255432%)" offset="0.398438"/><stop stop-opacity="1" stop-color="rgb(19.598389%, 2.082825%, 35.02655%)" offset="0.402344"/><stop stop-opacity="1" stop-color="rgb(19.468689%, 2.069092%, 34.796143%)" offset="0.40625"/><stop stop-opacity="1" stop-color="rgb(19.340515%, 2.056885%, 34.567261%)" offset="0.410156"/><stop stop-opacity="1" stop-color="rgb(19.212341%, 2.043152%, 34.336853%)" offset="0.414062"/><stop stop-opacity="1" stop-color="rgb(19.084167%, 2.029419%, 34.107971%)" offset="0.417969"/><stop stop-opacity="1" stop-color="rgb(18.954468%, 2.015686%, 33.877563%)" offset="0.421875"/><stop stop-opacity="1" stop-color="rgb(18.826294%, 2.001953%, 33.648682%)" offset="0.425781"/><stop stop-opacity="1" stop-color="rgb(18.69812%, 1.98822%, 33.418274%)" offset="0.429688"/><stop stop-opacity="1" stop-color="rgb(18.569946%, 1.974487%, 33.189392%)" offset="0.433594"/><stop stop-opacity="1" stop-color="rgb(18.441772%, 1.960754%, 32.958984%)" offset="0.4375"/><stop stop-opacity="1" stop-color="rgb(18.312073%, 1.947021%, 32.728577%)" offset="0.441406"/><stop stop-opacity="1" stop-color="rgb(18.183899%, 1.933289%, 32.499695%)" offset="0.445312"/><stop stop-opacity="1" stop-color="rgb(18.055725%, 1.919556%, 32.269287%)" offset="0.449219"/><stop stop-opacity="1" stop-color="rgb(17.927551%, 1.905823%, 32.040405%)" offset="0.453125"/><stop stop-opacity="1" stop-color="rgb(17.797852%, 1.89209%, 31.809998%)" offset="0.457031"/><stop stop-opacity="1" stop-color="rgb(17.669678%, 1.878357%, 31.581116%)" offset="0.460938"/><stop stop-opacity="1" stop-color="rgb(17.541504%, 1.864624%, 31.350708%)" offset="0.464844"/><stop stop-opacity="1" stop-color="rgb(17.41333%, 1.850891%, 31.121826%)" offset="0.46875"/><stop stop-opacity="1" stop-color="rgb(17.285156%, 1.837158%, 30.891418%)" offset="0.472656"/><stop stop-opacity="1" stop-color="rgb(17.155457%, 1.823425%, 30.662537%)" offset="0.476562"/><stop stop-opacity="1" stop-color="rgb(17.027283%, 1.809692%, 30.432129%)" offset="0.480469"/><stop stop-opacity="1" stop-color="rgb(16.899109%, 1.795959%, 30.203247%)" offset="0.484375"/><stop stop-opacity="1" stop-color="rgb(16.770935%, 1.782227%, 29.972839%)" offset="0.488281"/><stop stop-opacity="1" stop-color="rgb(16.641235%, 1.768494%, 29.743958%)" offset="0.492188"/><stop stop-opacity="1" stop-color="rgb(16.513062%, 1.754761%, 29.51355%)" offset="0.496094"/><stop stop-opacity="1" stop-color="rgb(16.384888%, 1.741028%, 29.284668%)" offset="0.5"/><stop stop-opacity="1" stop-color="rgb(16.256714%, 1.727295%, 29.05426%)" offset="0.503906"/><stop stop-opacity="1" stop-color="rgb(16.12854%, 1.715088%, 28.825378%)" offset="0.507812"/><stop stop-opacity="1" stop-color="rgb(15.99884%, 1.701355%, 28.594971%)" offset="0.511719"/><stop stop-opacity="1" stop-color="rgb(15.870667%, 1.687622%, 28.364563%)" offset="0.515625"/><stop stop-opacity="1" stop-color="rgb(15.742493%, 1.673889%, 28.135681%)" offset="0.519531"/><stop stop-opacity="1" stop-color="rgb(15.614319%, 1.660156%, 27.905273%)" offset="0.523438"/><stop stop-opacity="1" stop-color="rgb(15.484619%, 1.646423%, 27.676392%)" offset="0.527344"/><stop stop-opacity="1" stop-color="rgb(15.356445%, 1.63269%, 27.445984%)" offset="0.53125"/><stop stop-opacity="1" stop-color="rgb(15.228271%, 1.618958%, 27.217102%)" offset="0.535156"/><stop stop-opacity="1" stop-color="rgb(15.100098%, 1.605225%, 26.986694%)" offset="0.539062"/><stop stop-opacity="1" stop-color="rgb(14.970398%, 1.591492%, 26.757812%)" offset="0.542969"/><stop stop-opacity="1" stop-color="rgb(14.842224%, 1.577759%, 26.527405%)" offset="0.546875"/><stop stop-opacity="1" stop-color="rgb(14.71405%, 1.564026%, 26.298523%)" offset="0.550781"/><stop stop-opacity="1" stop-color="rgb(14.585876%, 1.550293%, 26.068115%)" offset="0.554688"/><stop stop-opacity="1" stop-color="rgb(14.457703%, 1.53656%, 25.839233%)" offset="0.558594"/><stop stop-opacity="1" stop-color="rgb(14.328003%, 1.522827%, 25.608826%)" offset="0.5625"/><stop stop-opacity="1" stop-color="rgb(14.199829%, 1.509094%, 25.379944%)" offset="0.566406"/><stop stop-opacity="1" stop-color="rgb(14.071655%, 1.495361%, 25.149536%)" offset="0.570312"/><stop stop-opacity="1" stop-color="rgb(13.943481%, 1.481628%, 24.920654%)" offset="0.574219"/><stop stop-opacity="1" stop-color="rgb(13.813782%, 1.467896%, 24.690247%)" offset="0.578125"/><stop stop-opacity="1" stop-color="rgb(13.685608%, 1.454163%, 24.459839%)" offset="0.582031"/><stop stop-opacity="1" stop-color="rgb(13.557434%, 1.44043%, 24.230957%)" offset="0.585938"/><stop stop-opacity="1" stop-color="rgb(13.42926%, 1.426697%, 24.000549%)" offset="0.589844"/><stop stop-opacity="1" stop-color="rgb(13.301086%, 1.412964%, 23.771667%)" offset="0.59375"/><stop stop-opacity="1" stop-color="rgb(13.171387%, 1.399231%, 23.54126%)" offset="0.597656"/><stop stop-opacity="1" stop-color="rgb(13.043213%, 1.385498%, 23.312378%)" offset="0.601562"/><stop stop-opacity="1" stop-color="rgb(12.915039%, 1.373291%, 23.08197%)" offset="0.605469"/><stop stop-opacity="1" stop-color="rgb(12.786865%, 1.359558%, 22.853088%)" offset="0.609375"/><stop stop-opacity="1" stop-color="rgb(12.657166%, 1.345825%, 22.622681%)" offset="0.613281"/><stop stop-opacity="1" stop-color="rgb(12.528992%, 1.332092%, 22.393799%)" offset="0.617188"/><stop stop-opacity="1" stop-color="rgb(12.400818%, 1.318359%, 22.163391%)" offset="0.621094"/><stop stop-opacity="1" stop-color="rgb(12.272644%, 1.304626%, 21.934509%)" offset="0.625"/><stop stop-opacity="1" stop-color="rgb(12.14447%, 1.290894%, 21.704102%)" offset="0.628906"/><stop stop-opacity="1" stop-color="rgb(12.014771%, 1.277161%, 21.47522%)" offset="0.632812"/><stop stop-opacity="1" stop-color="rgb(11.886597%, 1.263428%, 21.244812%)" offset="0.636719"/><stop stop-opacity="1" stop-color="rgb(11.758423%, 1.249695%, 21.01593%)" offset="0.640625"/><stop stop-opacity="1" stop-color="rgb(11.630249%, 1.235962%, 20.785522%)" offset="0.644531"/><stop stop-opacity="1" stop-color="rgb(11.500549%, 1.222229%, 20.555115%)" offset="0.648438"/><stop stop-opacity="1" stop-color="rgb(11.372375%, 1.208496%, 20.326233%)" offset="0.652344"/><stop stop-opacity="1" stop-color="rgb(11.244202%, 1.194763%, 20.095825%)" offset="0.65625"/><stop stop-opacity="1" stop-color="rgb(11.116028%, 1.18103%, 19.866943%)" offset="0.660156"/><stop stop-opacity="1" stop-color="rgb(10.987854%, 1.167297%, 19.636536%)" offset="0.664062"/><stop stop-opacity="1" stop-color="rgb(10.858154%, 1.153564%, 19.407654%)" offset="0.667969"/><stop stop-opacity="1" stop-color="rgb(10.72998%, 1.139832%, 19.177246%)" offset="0.671875"/><stop stop-opacity="1" stop-color="rgb(10.601807%, 1.126099%, 18.948364%)" offset="0.675781"/><stop stop-opacity="1" stop-color="rgb(10.473633%, 1.112366%, 18.717957%)" offset="0.679688"/><stop stop-opacity="1" stop-color="rgb(10.343933%, 1.098633%, 18.489075%)" offset="0.683594"/><stop stop-opacity="1" stop-color="rgb(10.215759%, 1.0849%, 18.258667%)" offset="0.6875"/><stop stop-opacity="1" stop-color="rgb(10.087585%, 1.071167%, 18.029785%)" offset="0.691406"/><stop stop-opacity="1" stop-color="rgb(9.959412%, 1.057434%, 17.799377%)" offset="0.695312"/><stop stop-opacity="1" stop-color="rgb(9.831238%, 1.043701%, 17.570496%)" offset="0.699219"/><stop stop-opacity="1" stop-color="rgb(9.701538%, 1.031494%, 17.340088%)" offset="0.703125"/><stop stop-opacity="1" stop-color="rgb(9.573364%, 1.017761%, 17.111206%)" offset="0.707031"/><stop stop-opacity="1" stop-color="rgb(9.44519%, 1.004028%, 16.880798%)" offset="0.710938"/><stop stop-opacity="1" stop-color="rgb(9.317017%, 0.990295%, 16.651917%)" offset="0.714844"/><stop stop-opacity="1" stop-color="rgb(9.187317%, 0.976562%, 16.421509%)" offset="0.71875"/><stop stop-opacity="1" stop-color="rgb(9.059143%, 0.96283%, 16.191101%)" offset="0.722656"/><stop stop-opacity="1" stop-color="rgb(8.930969%, 0.949097%, 15.962219%)" offset="0.726562"/><stop stop-opacity="1" stop-color="rgb(8.802795%, 0.935364%, 15.731812%)" offset="0.730469"/><stop stop-opacity="1" stop-color="rgb(8.674622%, 0.921631%, 15.50293%)" offset="0.734375"/><stop stop-opacity="1" stop-color="rgb(8.544922%, 0.907898%, 15.272522%)" offset="0.738281"/><stop stop-opacity="1" stop-color="rgb(8.416748%, 0.894165%, 15.04364%)" offset="0.742188"/><stop stop-opacity="1" stop-color="rgb(8.288574%, 0.880432%, 14.813232%)" offset="0.746094"/><stop stop-opacity="1" stop-color="rgb(8.1604%, 0.866699%, 14.584351%)" offset="0.75"/><stop stop-opacity="1" stop-color="rgb(8.030701%, 0.852966%, 14.353943%)" offset="0.753906"/><stop stop-opacity="1" stop-color="rgb(7.902527%, 0.839233%, 14.125061%)" offset="0.757812"/><stop stop-opacity="1" stop-color="rgb(7.774353%, 0.8255%, 13.894653%)" offset="0.761719"/><stop stop-opacity="1" stop-color="rgb(7.646179%, 0.811768%, 13.665771%)" offset="0.765625"/><stop stop-opacity="1" stop-color="rgb(7.516479%, 0.798035%, 13.435364%)" offset="0.769531"/><stop stop-opacity="1" stop-color="rgb(7.388306%, 0.784302%, 13.206482%)" offset="0.773438"/><stop stop-opacity="1" stop-color="rgb(7.260132%, 0.770569%, 12.976074%)" offset="0.777344"/><stop stop-opacity="1" stop-color="rgb(7.131958%, 0.756836%, 12.747192%)" offset="0.78125"/><stop stop-opacity="1" stop-color="rgb(7.003784%, 0.743103%, 12.516785%)" offset="0.785156"/><stop stop-opacity="1" stop-color="rgb(6.874084%, 0.72937%, 12.286377%)" offset="0.789062"/><stop stop-opacity="1" stop-color="rgb(6.745911%, 0.715637%, 12.057495%)" offset="0.792969"/><stop stop-opacity="1" stop-color="rgb(6.617737%, 0.701904%, 11.827087%)" offset="0.796875"/><stop stop-opacity="1" stop-color="rgb(6.489563%, 0.689697%, 11.598206%)" offset="0.800781"/><stop stop-opacity="1" stop-color="rgb(6.359863%, 0.675964%, 11.367798%)" offset="0.804688"/><stop stop-opacity="1" stop-color="rgb(6.231689%, 0.662231%, 11.138916%)" offset="0.808594"/><stop stop-opacity="1" stop-color="rgb(6.103516%, 0.648499%, 10.908508%)" offset="0.8125"/><stop stop-opacity="1" stop-color="rgb(5.975342%, 0.634766%, 10.679626%)" offset="0.816406"/><stop stop-opacity="1" stop-color="rgb(5.847168%, 0.621033%, 10.449219%)" offset="0.820312"/><stop stop-opacity="1" stop-color="rgb(5.717468%, 0.6073%, 10.220337%)" offset="0.824219"/><stop stop-opacity="1" stop-color="rgb(5.589294%, 0.593567%, 9.989929%)" offset="0.828125"/><stop stop-opacity="1" stop-color="rgb(5.461121%, 0.579834%, 9.761047%)" offset="0.832031"/><stop stop-opacity="1" stop-color="rgb(5.332947%, 0.566101%, 9.53064%)" offset="0.835938"/><stop stop-opacity="1" stop-color="rgb(5.203247%, 0.552368%, 9.301758%)" offset="0.839844"/><stop stop-opacity="1" stop-color="rgb(5.075073%, 0.538635%, 9.07135%)" offset="0.84375"/><stop stop-opacity="1" stop-color="rgb(4.946899%, 0.524902%, 8.842468%)" offset="0.847656"/><stop stop-opacity="1" stop-color="rgb(4.818726%, 0.511169%, 8.612061%)" offset="0.851562"/><stop stop-opacity="1" stop-color="rgb(4.690552%, 0.497437%, 8.383179%)" offset="0.855469"/><stop stop-opacity="1" stop-color="rgb(4.560852%, 0.483704%, 8.152771%)" offset="0.859375"/><stop stop-opacity="1" stop-color="rgb(4.432678%, 0.469971%, 7.922363%)" offset="0.863281"/><stop stop-opacity="1" stop-color="rgb(4.304504%, 0.456238%, 7.693481%)" offset="0.867188"/><stop stop-opacity="1" stop-color="rgb(4.176331%, 0.442505%, 7.463074%)" offset="0.871094"/><stop stop-opacity="1" stop-color="rgb(4.046631%, 0.428772%, 7.234192%)" offset="0.875"/><stop stop-opacity="1" stop-color="rgb(3.918457%, 0.415039%, 7.003784%)" offset="0.878906"/><stop stop-opacity="1" stop-color="rgb(3.790283%, 0.401306%, 6.774902%)" offset="0.882812"/><stop stop-opacity="1" stop-color="rgb(3.662109%, 0.387573%, 6.544495%)" offset="0.886719"/><stop stop-opacity="1" stop-color="rgb(3.533936%, 0.37384%, 6.315613%)" offset="0.890625"/><stop stop-opacity="1" stop-color="rgb(3.404236%, 0.360107%, 6.085205%)" offset="0.894531"/><stop stop-opacity="1" stop-color="rgb(3.276062%, 0.3479%, 5.856323%)" offset="0.898438"/><stop stop-opacity="1" stop-color="rgb(3.147888%, 0.334167%, 5.625916%)" offset="0.902344"/><stop stop-opacity="1" stop-color="rgb(3.019714%, 0.320435%, 5.397034%)" offset="0.90625"/><stop stop-opacity="1" stop-color="rgb(2.890015%, 0.306702%, 5.166626%)" offset="0.910156"/><stop stop-opacity="1" stop-color="rgb(2.761841%, 0.292969%, 4.937744%)" offset="0.914062"/><stop stop-opacity="1" stop-color="rgb(2.633667%, 0.279236%, 4.707336%)" offset="0.917969"/><stop stop-opacity="1" stop-color="rgb(2.505493%, 0.265503%, 4.478455%)" offset="0.921875"/><stop stop-opacity="1" stop-color="rgb(2.377319%, 0.25177%, 4.248047%)" offset="0.925781"/><stop stop-opacity="1" stop-color="rgb(2.24762%, 0.238037%, 4.017639%)" offset="0.929688"/><stop stop-opacity="1" stop-color="rgb(2.119446%, 0.224304%, 3.788757%)" offset="0.933594"/><stop stop-opacity="1" stop-color="rgb(1.991272%, 0.210571%, 3.55835%)" offset="0.9375"/><stop stop-opacity="1" stop-color="rgb(1.863098%, 0.196838%, 3.329468%)" offset="0.941406"/><stop stop-opacity="1" stop-color="rgb(1.733398%, 0.183105%, 3.09906%)" offset="0.945312"/><stop stop-opacity="1" stop-color="rgb(1.605225%, 0.169373%, 2.870178%)" offset="0.949219"/><stop stop-opacity="1" stop-color="rgb(1.477051%, 0.15564%, 2.639771%)" offset="0.953125"/><stop stop-opacity="1" stop-color="rgb(1.348877%, 0.141907%, 2.410889%)" offset="0.957031"/><stop stop-opacity="1" stop-color="rgb(1.220703%, 0.128174%, 2.180481%)" offset="0.960938"/><stop stop-opacity="1" stop-color="rgb(1.091003%, 0.114441%, 1.951599%)" offset="0.964844"/><stop stop-opacity="1" stop-color="rgb(0.96283%, 0.100708%, 1.721191%)" offset="0.96875"/><stop stop-opacity="1" stop-color="rgb(0.834656%, 0.0869751%, 1.49231%)" offset="0.972656"/><stop stop-opacity="1" stop-color="rgb(0.706482%, 0.0732422%, 1.261902%)" offset="0.976562"/><stop stop-opacity="1" stop-color="rgb(0.576782%, 0.0595093%, 1.03302%)" offset="0.980469"/><stop stop-opacity="1" stop-color="rgb(0.448608%, 0.0457764%, 0.802612%)" offset="0.984375"/><stop stop-opacity="1" stop-color="rgb(0.320435%, 0.0320435%, 0.57373%)" offset="0.988281"/><stop stop-opacity="1" stop-color="rgb(0.192261%, 0.0183105%, 0.343323%)" offset="0.992188"/><stop stop-opacity="1" stop-color="rgb(0.0640869%, 0.00610352%, 0.114441%)" offset="0.996094"/><stop stop-opacity="1" stop-color="rgb(0%, 0%, 0%)" offset="1"/></radialGradient><clipPath id="431328a9f7"><path d="M 4.183594 8.015625 L 31.914062 8.015625 L 31.914062 26.988281 L 4.183594 26.988281 Z M 4.183594 8.015625 " clip-rule="nonzero"/></clipPath></defs><g clip-path="url(#e779f28151)"><path fill="#ffffff" d="M 0.488281 0 L 35.511719 0 L 35.511719 35.027344 L 0.488281 35.027344 Z M 0.488281 0 " fill-opacity="1" fill-rule="nonzero"/></g><g clip-path="url(#6804f27da1)"><g clip-path="url(#6ff9125699)"><path fill="url(#d8b4ecba44)" d="M 0.488281 0 L 0.488281 35.027344 L 35.511719 35.027344 L 35.511719 0 Z M 0.488281 0 " fill-rule="nonzero"/></g></g><path fill="#ffffff" d="M 13.617188 22.433594 L 13.402344 22.542969 L 13.316406 22.347656 C 13.011719 22.242188 12.730469 22.046875 12.515625 21.808594 C 12.0625 21.917969 11.589844 21.917969 11.136719 21.851562 C 10.917969 21.808594 10.726562 21.9375 10.660156 22.132812 L 10.464844 22.671875 L 9.816406 22.433594 L 10.011719 21.894531 C 10.078125 21.699219 10.011719 21.484375 9.816406 21.378906 C 9.363281 21.117188 8.996094 20.773438 8.695312 20.339844 C 8.566406 20.167969 8.351562 20.105469 8.15625 20.191406 L 7.636719 20.425781 L 7.359375 19.800781 L 7.875 19.5625 C 8.070312 19.476562 8.15625 19.261719 8.113281 19.066406 C 7.984375 18.570312 7.960938 18.054688 8.046875 17.535156 C 8.089844 17.320312 7.960938 17.125 7.769531 17.058594 L 7.226562 16.867188 L 7.464844 16.21875 L 8.003906 16.414062 C 8.199219 16.476562 8.414062 16.414062 8.523438 16.21875 C 8.78125 15.765625 9.128906 15.398438 9.558594 15.097656 C 9.730469 14.964844 9.796875 14.75 9.710938 14.554688 L 9.472656 14.039062 L 10.097656 13.757812 L 10.335938 14.277344 C 10.421875 14.46875 10.636719 14.554688 10.832031 14.511719 C 11.308594 14.382812 11.78125 14.363281 12.257812 14.425781 C 12.429688 14.101562 12.710938 13.84375 13.011719 13.671875 L 13.035156 13.628906 L 13.054688 13.628906 C 13.359375 13.457031 13.703125 13.371094 14.070312 13.371094 L 14.4375 13.371094 C 14.351562 13.238281 14.222656 13.132812 14.070312 13.089844 L 13.207031 12.765625 C 13.011719 12.699219 12.816406 12.699219 12.644531 12.785156 C 12.472656 12.871094 12.320312 13.023438 12.257812 13.195312 L 12.148438 13.519531 C 11.761719 13.476562 11.371094 13.5 10.984375 13.5625 L 10.832031 13.261719 C 10.746094 13.089844 10.59375 12.9375 10.421875 12.871094 C 10.226562 12.808594 10.035156 12.808594 9.863281 12.894531 L 9.019531 13.28125 C 8.652344 13.457031 8.480469 13.886719 8.652344 14.277344 L 8.804688 14.578125 C 8.5 14.835938 8.242188 15.117188 8.003906 15.441406 L 7.679688 15.332031 C 7.292969 15.203125 6.882812 15.398438 6.730469 15.785156 L 6.40625 16.648438 C 6.34375 16.84375 6.34375 17.039062 6.429688 17.210938 C 6.515625 17.382812 6.667969 17.535156 6.839844 17.601562 L 7.164062 17.707031 C 7.121094 18.097656 7.140625 18.484375 7.207031 18.875 L 6.90625 19.023438 C 6.730469 19.109375 6.582031 19.261719 6.515625 19.433594 C 6.449219 19.628906 6.449219 19.824219 6.539062 19.996094 L 6.925781 20.835938 C 7.097656 21.203125 7.53125 21.378906 7.917969 21.203125 L 8.222656 21.054688 C 8.480469 21.355469 8.761719 21.613281 9.085938 21.851562 L 8.976562 22.175781 C 8.847656 22.5625 9.042969 22.972656 9.429688 23.125 L 10.292969 23.449219 C 10.378906 23.46875 10.464844 23.492188 10.550781 23.492188 C 10.660156 23.492188 10.769531 23.46875 10.855469 23.425781 C 11.027344 23.339844 11.179688 23.191406 11.242188 23.015625 L 11.351562 22.695312 C 11.738281 22.738281 12.128906 22.714844 12.515625 22.652344 L 12.667969 22.953125 C 12.753906 23.125 12.90625 23.277344 13.078125 23.339844 C 13.273438 23.40625 13.464844 23.40625 13.636719 23.320312 L 14.480469 22.929688 C 14.695312 22.824219 14.824219 22.652344 14.890625 22.433594 L 14.046875 22.433594 C 13.898438 22.476562 13.746094 22.457031 13.617188 22.433594 Z M 13.617188 22.433594 " fill-opacity="1" fill-rule="nonzero"/><path fill="#ffffff" d="M 11.003906 16.585938 C 11.242188 16.476562 11.480469 16.414062 11.738281 16.414062 C 11.804688 16.414062 11.890625 16.414062 11.953125 16.433594 L 11.953125 15.570312 C 11.5 15.527344 11.046875 15.613281 10.636719 15.808594 C 10.011719 16.109375 9.539062 16.628906 9.300781 17.277344 C 9.0625 17.921875 9.085938 18.636719 9.386719 19.261719 C 9.6875 19.886719 10.207031 20.363281 10.855469 20.601562 C 11.136719 20.707031 11.4375 20.75 11.738281 20.75 C 11.824219 20.75 11.910156 20.75 11.976562 20.730469 C 11.953125 20.621094 11.933594 20.492188 11.933594 20.363281 L 11.933594 19.867188 C 11.675781 19.910156 11.394531 19.867188 11.136719 19.78125 C 10.703125 19.628906 10.359375 19.304688 10.164062 18.894531 C 9.96875 18.484375 9.949219 18.011719 10.097656 17.578125 C 10.269531 17.148438 10.59375 16.78125 11.003906 16.585938 Z M 11.003906 16.585938 " fill-opacity="1" fill-rule="nonzero"/><path fill="#ffffff" d="M 24.042969 15.507812 L 24.042969 16.21875 L 24.472656 16.21875 C 24.496094 16.21875 24.539062 16.21875 24.558594 16.21875 C 24.582031 16.21875 24.582031 16.21875 24.601562 16.195312 C 24.625 16.195312 24.625 16.195312 24.644531 16.175781 C 24.667969 16.175781 24.667969 16.152344 24.6875 16.152344 C 24.6875 16.152344 24.710938 16.152344 24.710938 16.132812 C 24.734375 16.109375 24.753906 16.089844 24.777344 16.066406 L 25.941406 14.902344 C 25.960938 14.902344 25.960938 14.902344 25.984375 14.902344 L 27.367188 14.902344 C 27.539062 15.398438 28.011719 15.765625 28.574219 15.765625 C 29.285156 15.765625 29.871094 15.183594 29.871094 14.46875 C 29.871094 13.757812 29.285156 13.175781 28.574219 13.175781 C 28.011719 13.175781 27.539062 13.542969 27.367188 14.039062 L 25.769531 14.039062 C 25.660156 14.039062 25.550781 14.082031 25.464844 14.167969 L 24.300781 15.355469 L 24.042969 15.355469 C 24.042969 15.398438 24.042969 15.464844 24.042969 15.507812 Z M 28.574219 14.058594 C 28.8125 14.058594 29.007812 14.253906 29.007812 14.492188 C 29.007812 14.730469 28.8125 14.921875 28.574219 14.921875 C 28.335938 14.921875 28.144531 14.730469 28.144531 14.492188 C 28.144531 14.253906 28.335938 14.058594 28.574219 14.058594 Z M 28.574219 14.058594 " fill-opacity="1" fill-rule="nonzero"/><g clip-path="url(#431328a9f7)"><path fill="#ffffff" d="M 30.515625 8.015625 L 5.480469 8.015625 C 4.769531 8.015625 4.183594 8.597656 4.183594 9.3125 L 4.183594 25.714844 C 4.183594 26.425781 4.769531 27.011719 5.480469 27.011719 L 30.515625 27.011719 C 31.230469 27.011719 31.8125 26.425781 31.8125 25.714844 L 31.8125 9.3125 C 31.8125 8.597656 31.230469 8.015625 30.515625 8.015625 Z M 5.480469 8.878906 L 30.515625 8.878906 C 30.753906 8.878906 30.949219 9.074219 30.949219 9.3125 L 30.949219 11.039062 L 5.046875 11.039062 L 5.046875 9.3125 C 5.046875 9.074219 5.242188 8.878906 5.480469 8.878906 Z M 30.515625 26.148438 L 5.480469 26.148438 C 5.242188 26.148438 5.046875 25.953125 5.046875 25.714844 L 5.046875 11.902344 L 30.949219 11.902344 L 30.949219 25.714844 C 30.949219 25.953125 30.753906 26.148438 30.515625 26.148438 Z M 30.515625 26.148438 " fill-opacity="1" fill-rule="nonzero"/></g><path fill="#ffffff" d="M 7.636719 9.960938 C 7.636719 10.078125 7.597656 10.179688 7.511719 10.265625 C 7.425781 10.347656 7.324219 10.390625 7.207031 10.390625 C 7.085938 10.390625 6.984375 10.347656 6.902344 10.265625 C 6.816406 10.179688 6.773438 10.078125 6.773438 9.960938 C 6.773438 9.839844 6.816406 9.738281 6.902344 9.652344 C 6.984375 9.570312 7.085938 9.527344 7.207031 9.527344 C 7.324219 9.527344 7.425781 9.570312 7.511719 9.652344 C 7.597656 9.738281 7.636719 9.839844 7.636719 9.960938 Z M 7.636719 9.960938 " fill-opacity="1" fill-rule="nonzero"/><path fill="#ffffff" d="M 10.226562 9.960938 C 10.226562 10.078125 10.1875 10.179688 10.101562 10.265625 C 10.015625 10.347656 9.914062 10.390625 9.796875 10.390625 C 9.675781 10.390625 9.574219 10.347656 9.492188 10.265625 C 9.40625 10.179688 9.363281 10.078125 9.363281 9.960938 C 9.363281 9.839844 9.40625 9.738281 9.492188 9.652344 C 9.574219 9.570312 9.675781 9.527344 9.796875 9.527344 C 9.914062 9.527344 10.015625 9.570312 10.101562 9.652344 C 10.1875 9.738281 10.226562 9.839844 10.226562 9.960938 Z M 10.226562 9.960938 " fill-opacity="1" fill-rule="nonzero"/><path fill="#ffffff" d="M 12.816406 9.960938 C 12.816406 10.078125 12.777344 10.179688 12.691406 10.265625 C 12.609375 10.347656 12.503906 10.390625 12.386719 10.390625 C 12.265625 10.390625 12.164062 10.347656 12.082031 10.265625 C 11.996094 10.179688 11.953125 10.078125 11.953125 9.960938 C 11.953125 9.839844 11.996094 9.738281 12.082031 9.652344 C 12.164062 9.570312 12.265625 9.527344 12.386719 9.527344 C 12.503906 9.527344 12.609375 9.570312 12.691406 9.652344 C 12.777344 9.738281 12.816406 9.839844 12.816406 9.960938 Z M 12.816406 9.960938 " fill-opacity="1" fill-rule="nonzero"/><path fill="#ffffff" d="M 23.179688 15.507812 C 23.179688 14.835938 22.617188 14.277344 21.949219 14.277344 L 14.046875 14.277344 C 13.378906 14.277344 12.816406 14.835938 12.816406 15.507812 L 12.816406 20.382812 C 12.816406 21.054688 13.378906 21.613281 14.046875 21.613281 L 21.949219 21.613281 C 22.617188 21.613281 23.179688 21.054688 23.179688 20.382812 Z M 22.316406 20.382812 C 22.316406 20.578125 22.140625 20.75 21.949219 20.75 L 14.046875 20.75 C 13.855469 20.75 13.683594 20.578125 13.683594 20.382812 L 13.683594 15.507812 C 13.683594 15.3125 13.855469 15.140625 14.046875 15.140625 L 21.949219 15.140625 C 22.140625 15.140625 22.316406 15.3125 22.316406 15.507812 Z M 22.316406 20.382812 " fill-opacity="1" fill-rule="nonzero"/><path fill="#ffffff" d="M 16.550781 17.277344 C 16.550781 17.210938 16.550781 17.167969 16.550781 17.101562 C 16.550781 17.058594 16.550781 16.996094 16.550781 16.910156 C 16.550781 16.824219 16.53125 16.757812 16.53125 16.691406 L 14.414062 17.558594 C 14.371094 17.6875 14.371094 17.792969 14.371094 17.921875 C 14.371094 18.054688 14.394531 18.183594 14.414062 18.332031 L 16.53125 19.195312 C 16.53125 19.175781 16.550781 19.132812 16.550781 19.089844 C 16.550781 19.046875 16.550781 19.003906 16.574219 18.960938 C 16.574219 18.917969 16.574219 18.875 16.574219 18.851562 C 16.574219 18.832031 16.574219 18.785156 16.574219 18.765625 C 16.574219 18.699219 16.574219 18.65625 16.574219 18.59375 C 16.574219 18.527344 16.550781 18.464844 16.550781 18.398438 L 15.191406 17.921875 L 16.53125 17.449219 C 16.550781 17.382812 16.550781 17.339844 16.550781 17.277344 Z M 16.550781 17.277344 " fill-opacity="1" fill-rule="nonzero"/><path fill="#ffffff" d="M 18.601562 16.023438 C 18.539062 16.023438 18.472656 16.023438 18.410156 16.023438 C 18.34375 16.023438 18.277344 16.046875 18.214844 16.046875 L 16.984375 19.695312 C 17.070312 19.714844 17.15625 19.714844 17.222656 19.738281 C 17.285156 19.738281 17.351562 19.738281 17.414062 19.738281 C 17.480469 19.738281 17.546875 19.738281 17.609375 19.738281 C 17.675781 19.738281 17.738281 19.714844 17.804688 19.714844 L 19.035156 16.066406 C 18.949219 16.046875 18.863281 16.046875 18.796875 16.023438 C 18.730469 16.023438 18.667969 16.023438 18.601562 16.023438 Z M 18.601562 16.023438 " fill-opacity="1" fill-rule="nonzero"/><path fill="#ffffff" d="M 19.464844 16.671875 C 19.445312 16.738281 19.445312 16.800781 19.445312 16.886719 C 19.445312 16.972656 19.445312 17.039062 19.445312 17.082031 C 19.445312 17.148438 19.445312 17.191406 19.445312 17.253906 C 19.445312 17.320312 19.464844 17.382812 19.464844 17.449219 L 20.804688 17.921875 L 19.464844 18.375 C 19.445312 18.441406 19.445312 18.507812 19.445312 18.570312 C 19.445312 18.636719 19.445312 18.699219 19.445312 18.742188 C 19.445312 18.765625 19.445312 18.808594 19.445312 18.832031 C 19.445312 18.875 19.445312 18.917969 19.445312 18.9375 C 19.445312 18.980469 19.445312 19.023438 19.464844 19.066406 C 19.488281 19.109375 19.488281 19.132812 19.488281 19.175781 L 21.601562 18.3125 C 21.644531 18.183594 21.644531 18.03125 21.644531 17.902344 C 21.644531 17.773438 21.625 17.644531 21.601562 17.535156 Z M 19.464844 16.671875 " fill-opacity="1" fill-rule="nonzero"/><path fill="#ffffff" d="M 29.222656 21.832031 L 24.042969 21.832031 C 23.566406 21.832031 23.179688 22.21875 23.179688 22.695312 L 23.179688 24.421875 C 23.179688 24.894531 23.566406 25.285156 24.042969 25.285156 L 29.222656 25.285156 C 29.695312 25.285156 30.085938 24.894531 30.085938 24.421875 L 30.085938 22.695312 C 30.085938 22.21875 29.695312 21.832031 29.222656 21.832031 Z M 24.042969 24.421875 L 24.042969 22.695312 L 29.222656 22.695312 L 29.222656 24.421875 Z M 24.042969 24.421875 " fill-opacity="1" fill-rule="nonzero"/><path fill="#ffffff" d="M 28.359375 22.910156 C 27.96875 22.910156 27.753906 23.125 27.625 23.253906 C 27.539062 23.339844 27.539062 23.339844 27.496094 23.339844 C 27.453125 23.339844 27.453125 23.339844 27.367188 23.253906 C 27.234375 23.125 27.019531 22.910156 26.632812 22.910156 C 26.242188 22.910156 26.027344 23.125 25.898438 23.253906 C 25.8125 23.339844 25.8125 23.339844 25.769531 23.339844 C 25.726562 23.339844 25.726562 23.339844 25.640625 23.253906 C 25.507812 23.125 25.292969 22.910156 24.90625 22.910156 C 24.667969 22.910156 24.472656 23.105469 24.472656 23.339844 C 24.472656 23.578125 24.667969 23.773438 24.90625 23.773438 C 24.949219 23.773438 24.949219 23.773438 25.035156 23.859375 C 25.164062 23.988281 25.378906 24.203125 25.769531 24.203125 C 26.15625 24.203125 26.371094 23.988281 26.503906 23.859375 C 26.589844 23.773438 26.589844 23.773438 26.632812 23.773438 C 26.675781 23.773438 26.675781 23.773438 26.761719 23.859375 C 26.890625 23.988281 27.105469 24.203125 27.496094 24.203125 C 27.882812 24.203125 28.097656 23.988281 28.230469 23.859375 C 28.316406 23.773438 28.316406 23.773438 28.359375 23.773438 C 28.597656 23.773438 28.789062 23.578125 28.789062 23.339844 C 28.789062 23.105469 28.597656 22.910156 28.359375 22.910156 Z M 28.359375 22.910156 " fill-opacity="1" fill-rule="nonzero"/><path fill="#ffffff" d="M 26.632812 16.648438 C 26.070312 16.648438 25.597656 17.015625 25.421875 17.511719 L 24.042969 17.511719 L 24.042969 18.375 L 25.421875 18.375 C 25.597656 18.875 26.070312 19.238281 26.632812 19.238281 C 27.34375 19.238281 27.925781 18.65625 27.925781 17.945312 C 27.925781 17.234375 27.34375 16.648438 26.632812 16.648438 Z M 26.632812 18.375 C 26.394531 18.375 26.199219 18.183594 26.199219 17.945312 C 26.199219 17.707031 26.394531 17.511719 26.632812 17.511719 C 26.871094 17.511719 27.0625 17.707031 27.0625 17.945312 C 27.0625 18.183594 26.871094 18.375 26.632812 18.375 Z M 26.632812 18.375 " fill-opacity="1" fill-rule="nonzero"/></svg>