<svg xmlns="http://www.w3.org/2000/svg" xmlns:xlink="http://www.w3.org/1999/xlink" width="48" zoomAndPan="magnify" viewBox="0 0 36 36.000001" height="48" preserveAspectRatio="xMidYMid meet" version="1.0"><defs><clipPath id="84f95c050b"><path d="M 0.488281 0 L 35.511719 0 L 35.511719 35.027344 L 0.488281 35.027344 Z M 0.488281 0 " clip-rule="nonzero"/></clipPath><clipPath id="f1f3082124"><path d="M 0.488281 0 L 35.511719 0 L 35.511719 35.027344 L 0.488281 35.027344 Z M 0.488281 0 " clip-rule="nonzero"/></clipPath><clipPath id="7637742e2d"><path d="M 18 0 C 8.328125 0 0.488281 7.839844 0.488281 17.511719 C 0.488281 27.1875 8.328125 35.027344 18 35.027344 C 27.671875 35.027344 35.511719 27.1875 35.511719 17.511719 C 35.511719 7.839844 27.671875 0 18 0 Z M 18 0 " clip-rule="nonzero"/></clipPath><radialGradient gradientTransform="matrix(1, 0, 0, 1, 0.486486, 0.00000194595)" gradientUnits="userSpaceOnUse" r="49.535743" cx="0" id="9c4f3f8004" cy="0" fx="0" fy="0"><stop stop-opacity="1" stop-color="rgb(32.835388%, 3.491211%, 58.683777%)" offset="0"/><stop stop-opacity="1" stop-color="rgb(32.705688%, 3.477478%, 58.454895%)" offset="0.00390625"/><stop stop-opacity="1" stop-color="rgb(32.577515%, 3.463745%, 58.224487%)" offset="0.0078125"/><stop stop-opacity="1" stop-color="rgb(32.449341%, 3.450012%, 57.995605%)" offset="0.0117188"/><stop stop-opacity="1" stop-color="rgb(32.321167%, 3.436279%, 57.765198%)" offset="0.015625"/><stop stop-opacity="1" stop-color="rgb(32.192993%, 3.424072%, 57.536316%)" offset="0.0195312"/><stop stop-opacity="1" stop-color="rgb(32.063293%, 3.410339%, 57.305908%)" offset="0.0234375"/><stop stop-opacity="1" stop-color="rgb(31.93512%, 3.396606%, 57.0755%)" offset="0.0273438"/><stop stop-opacity="1" stop-color="rgb(31.806946%, 3.382874%, 56.846619%)" offset="0.03125"/><stop stop-opacity="1" stop-color="rgb(31.678772%, 3.369141%, 56.616211%)" offset="0.0351562"/><stop stop-opacity="1" stop-color="rgb(31.549072%, 3.355408%, 56.387329%)" offset="0.0390625"/><stop stop-opacity="1" stop-color="rgb(31.420898%, 3.341675%, 56.156921%)" offset="0.0429688"/><stop stop-opacity="1" stop-color="rgb(31.292725%, 3.327942%, 55.92804%)" offset="0.046875"/><stop stop-opacity="1" stop-color="rgb(31.164551%, 3.314209%, 55.697632%)" offset="0.0507812"/><stop stop-opacity="1" stop-color="rgb(31.034851%, 3.300476%, 55.46875%)" offset="0.0546875"/><stop stop-opacity="1" stop-color="rgb(30.906677%, 3.286743%, 55.238342%)" offset="0.0585938"/><stop stop-opacity="1" stop-color="rgb(30.778503%, 3.27301%, 55.00946%)" offset="0.0625"/><stop stop-opacity="1" stop-color="rgb(30.65033%, 3.259277%, 54.779053%)" offset="0.0664062"/><stop stop-opacity="1" stop-color="rgb(30.522156%, 3.245544%, 54.550171%)" offset="0.0703125"/><stop stop-opacity="1" stop-color="rgb(30.392456%, 3.231812%, 54.319763%)" offset="0.0742188"/><stop stop-opacity="1" stop-color="rgb(30.264282%, 3.218079%, 54.090881%)" offset="0.078125"/><stop stop-opacity="1" stop-color="rgb(30.136108%, 3.204346%, 53.860474%)" offset="0.0820312"/><stop stop-opacity="1" stop-color="rgb(30.007935%, 3.190613%, 53.631592%)" offset="0.0859375"/><stop stop-opacity="1" stop-color="rgb(29.878235%, 3.17688%, 53.401184%)" offset="0.0898438"/><stop stop-opacity="1" stop-color="rgb(29.750061%, 3.163147%, 53.170776%)" offset="0.09375"/><stop stop-opacity="1" stop-color="rgb(29.621887%, 3.149414%, 52.941895%)" offset="0.0976562"/><stop stop-opacity="1" stop-color="rgb(29.493713%, 3.135681%, 52.711487%)" offset="0.101562"/><stop stop-opacity="1" stop-color="rgb(29.36554%, 3.121948%, 52.482605%)" offset="0.105469"/><stop stop-opacity="1" stop-color="rgb(29.23584%, 3.108215%, 52.252197%)" offset="0.109375"/><stop stop-opacity="1" stop-color="rgb(29.107666%, 3.094482%, 52.023315%)" offset="0.113281"/><stop stop-opacity="1" stop-color="rgb(28.979492%, 3.082275%, 51.792908%)" offset="0.117188"/><stop stop-opacity="1" stop-color="rgb(28.851318%, 3.068542%, 51.564026%)" offset="0.121094"/><stop stop-opacity="1" stop-color="rgb(28.721619%, 3.05481%, 51.333618%)" offset="0.125"/><stop stop-opacity="1" stop-color="rgb(28.593445%, 3.041077%, 51.104736%)" offset="0.128906"/><stop stop-opacity="1" stop-color="rgb(28.465271%, 3.027344%, 50.874329%)" offset="0.132812"/><stop stop-opacity="1" stop-color="rgb(28.337097%, 3.013611%, 50.645447%)" offset="0.136719"/><stop stop-opacity="1" stop-color="rgb(28.208923%, 2.999878%, 50.415039%)" offset="0.140625"/><stop stop-opacity="1" stop-color="rgb(28.079224%, 2.986145%, 50.186157%)" offset="0.144531"/><stop stop-opacity="1" stop-color="rgb(27.95105%, 2.972412%, 49.95575%)" offset="0.148438"/><stop stop-opacity="1" stop-color="rgb(27.822876%, 2.958679%, 49.726868%)" offset="0.152344"/><stop stop-opacity="1" stop-color="rgb(27.694702%, 2.944946%, 49.49646%)" offset="0.15625"/><stop stop-opacity="1" stop-color="rgb(27.565002%, 2.931213%, 49.266052%)" offset="0.160156"/><stop stop-opacity="1" stop-color="rgb(27.436829%, 2.91748%, 49.03717%)" offset="0.164062"/><stop stop-opacity="1" stop-color="rgb(27.308655%, 2.903748%, 48.806763%)" offset="0.167969"/><stop stop-opacity="1" stop-color="rgb(27.180481%, 2.890015%, 48.577881%)" offset="0.171875"/><stop stop-opacity="1" stop-color="rgb(27.052307%, 2.876282%, 48.347473%)" offset="0.175781"/><stop stop-opacity="1" stop-color="rgb(26.922607%, 2.862549%, 48.118591%)" offset="0.179688"/><stop stop-opacity="1" stop-color="rgb(26.794434%, 2.848816%, 47.888184%)" offset="0.183594"/><stop stop-opacity="1" stop-color="rgb(26.66626%, 2.835083%, 47.659302%)" offset="0.1875"/><stop stop-opacity="1" stop-color="rgb(26.538086%, 2.82135%, 47.428894%)" offset="0.191406"/><stop stop-opacity="1" stop-color="rgb(26.408386%, 2.807617%, 47.200012%)" offset="0.195312"/><stop stop-opacity="1" stop-color="rgb(26.280212%, 2.793884%, 46.969604%)" offset="0.199219"/><stop stop-opacity="1" stop-color="rgb(26.152039%, 2.780151%, 46.740723%)" offset="0.203125"/><stop stop-opacity="1" stop-color="rgb(26.023865%, 2.766418%, 46.510315%)" offset="0.207031"/><stop stop-opacity="1" stop-color="rgb(25.895691%, 2.752686%, 46.281433%)" offset="0.210938"/><stop stop-opacity="1" stop-color="rgb(25.765991%, 2.740479%, 46.051025%)" offset="0.214844"/><stop stop-opacity="1" stop-color="rgb(25.637817%, 2.726746%, 45.822144%)" offset="0.21875"/><stop stop-opacity="1" stop-color="rgb(25.509644%, 2.713013%, 45.591736%)" offset="0.222656"/><stop stop-opacity="1" stop-color="rgb(25.38147%, 2.69928%, 45.362854%)" offset="0.226562"/><stop stop-opacity="1" stop-color="rgb(25.25177%, 2.685547%, 45.132446%)" offset="0.230469"/><stop stop-opacity="1" stop-color="rgb(25.123596%, 2.671814%, 44.902039%)" offset="0.234375"/><stop stop-opacity="1" stop-color="rgb(24.995422%, 2.658081%, 44.673157%)" offset="0.238281"/><stop stop-opacity="1" stop-color="rgb(24.867249%, 2.644348%, 44.442749%)" offset="0.242188"/><stop stop-opacity="1" stop-color="rgb(24.739075%, 2.630615%, 44.213867%)" offset="0.246094"/><stop stop-opacity="1" stop-color="rgb(24.609375%, 2.616882%, 43.983459%)" offset="0.25"/><stop stop-opacity="1" stop-color="rgb(24.481201%, 2.603149%, 43.754578%)" offset="0.253906"/><stop stop-opacity="1" stop-color="rgb(24.353027%, 2.589417%, 43.52417%)" offset="0.257812"/><stop stop-opacity="1" stop-color="rgb(24.224854%, 2.575684%, 43.295288%)" offset="0.261719"/><stop stop-opacity="1" stop-color="rgb(24.095154%, 2.561951%, 43.06488%)" offset="0.265625"/><stop stop-opacity="1" stop-color="rgb(23.96698%, 2.548218%, 42.835999%)" offset="0.269531"/><stop stop-opacity="1" stop-color="rgb(23.838806%, 2.534485%, 42.605591%)" offset="0.273438"/><stop stop-opacity="1" stop-color="rgb(23.710632%, 2.520752%, 42.376709%)" offset="0.277344"/><stop stop-opacity="1" stop-color="rgb(23.580933%, 2.507019%, 42.146301%)" offset="0.28125"/><stop stop-opacity="1" stop-color="rgb(23.452759%, 2.493286%, 41.917419%)" offset="0.285156"/><stop stop-opacity="1" stop-color="rgb(23.324585%, 2.479553%, 41.687012%)" offset="0.289062"/><stop stop-opacity="1" stop-color="rgb(23.196411%, 2.46582%, 41.45813%)" offset="0.292969"/><stop stop-opacity="1" stop-color="rgb(23.068237%, 2.452087%, 41.227722%)" offset="0.296875"/><stop stop-opacity="1" stop-color="rgb(22.938538%, 2.438354%, 40.997314%)" offset="0.300781"/><stop stop-opacity="1" stop-color="rgb(22.810364%, 2.424622%, 40.768433%)" offset="0.304688"/><stop stop-opacity="1" stop-color="rgb(22.68219%, 2.410889%, 40.538025%)" offset="0.308594"/><stop stop-opacity="1" stop-color="rgb(22.554016%, 2.398682%, 40.309143%)" offset="0.3125"/><stop stop-opacity="1" stop-color="rgb(22.424316%, 2.384949%, 40.078735%)" offset="0.316406"/><stop stop-opacity="1" stop-color="rgb(22.296143%, 2.371216%, 39.849854%)" offset="0.320312"/><stop stop-opacity="1" stop-color="rgb(22.167969%, 2.357483%, 39.619446%)" offset="0.324219"/><stop stop-opacity="1" stop-color="rgb(22.039795%, 2.34375%, 39.390564%)" offset="0.328125"/><stop stop-opacity="1" stop-color="rgb(21.911621%, 2.330017%, 39.160156%)" offset="0.332031"/><stop stop-opacity="1" stop-color="rgb(21.781921%, 2.316284%, 38.931274%)" offset="0.335938"/><stop stop-opacity="1" stop-color="rgb(21.653748%, 2.302551%, 38.700867%)" offset="0.339844"/><stop stop-opacity="1" stop-color="rgb(21.525574%, 2.288818%, 38.471985%)" offset="0.34375"/><stop stop-opacity="1" stop-color="rgb(21.3974%, 2.275085%, 38.241577%)" offset="0.347656"/><stop stop-opacity="1" stop-color="rgb(21.2677%, 2.261353%, 38.012695%)" offset="0.351562"/><stop stop-opacity="1" stop-color="rgb(21.139526%, 2.24762%, 37.782288%)" offset="0.355469"/><stop stop-opacity="1" stop-color="rgb(21.011353%, 2.233887%, 37.553406%)" offset="0.359375"/><stop stop-opacity="1" stop-color="rgb(20.883179%, 2.220154%, 37.322998%)" offset="0.363281"/><stop stop-opacity="1" stop-color="rgb(20.755005%, 2.206421%, 37.094116%)" offset="0.367188"/><stop stop-opacity="1" stop-color="rgb(20.625305%, 2.192688%, 36.863708%)" offset="0.371094"/><stop stop-opacity="1" stop-color="rgb(20.497131%, 2.178955%, 36.633301%)" offset="0.375"/><stop stop-opacity="1" stop-color="rgb(20.368958%, 2.165222%, 36.404419%)" offset="0.378906"/><stop stop-opacity="1" stop-color="rgb(20.240784%, 2.151489%, 36.174011%)" offset="0.382812"/><stop stop-opacity="1" stop-color="rgb(20.111084%, 2.137756%, 35.945129%)" offset="0.386719"/><stop stop-opacity="1" stop-color="rgb(19.98291%, 2.124023%, 35.714722%)" offset="0.390625"/><stop stop-opacity="1" stop-color="rgb(19.854736%, 2.110291%, 35.48584%)" offset="0.394531"/><stop stop-opacity="1" stop-color="rgb(19.726562%, 2.096558%, 35.255432%)" offset="0.398438"/><stop stop-opacity="1" stop-color="rgb(19.598389%, 2.082825%, 35.02655%)" offset="0.402344"/><stop stop-opacity="1" stop-color="rgb(19.468689%, 2.069092%, 34.796143%)" offset="0.40625"/><stop stop-opacity="1" stop-color="rgb(19.340515%, 2.056885%, 34.567261%)" offset="0.410156"/><stop stop-opacity="1" stop-color="rgb(19.212341%, 2.043152%, 34.336853%)" offset="0.414062"/><stop stop-opacity="1" stop-color="rgb(19.084167%, 2.029419%, 34.107971%)" offset="0.417969"/><stop stop-opacity="1" stop-color="rgb(18.954468%, 2.015686%, 33.877563%)" offset="0.421875"/><stop stop-opacity="1" stop-color="rgb(18.826294%, 2.001953%, 33.648682%)" offset="0.425781"/><stop stop-opacity="1" stop-color="rgb(18.69812%, 1.98822%, 33.418274%)" offset="0.429688"/><stop stop-opacity="1" stop-color="rgb(18.569946%, 1.974487%, 33.189392%)" offset="0.433594"/><stop stop-opacity="1" stop-color="rgb(18.441772%, 1.960754%, 32.958984%)" offset="0.4375"/><stop stop-opacity="1" stop-color="rgb(18.312073%, 1.947021%, 32.728577%)" offset="0.441406"/><stop stop-opacity="1" stop-color="rgb(18.183899%, 1.933289%, 32.499695%)" offset="0.445312"/><stop stop-opacity="1" stop-color="rgb(18.055725%, 1.919556%, 32.269287%)" offset="0.449219"/><stop stop-opacity="1" stop-color="rgb(17.927551%, 1.905823%, 32.040405%)" offset="0.453125"/><stop stop-opacity="1" stop-color="rgb(17.797852%, 1.89209%, 31.809998%)" offset="0.457031"/><stop stop-opacity="1" stop-color="rgb(17.669678%, 1.878357%, 31.581116%)" offset="0.460938"/><stop stop-opacity="1" stop-color="rgb(17.541504%, 1.864624%, 31.350708%)" offset="0.464844"/><stop stop-opacity="1" stop-color="rgb(17.41333%, 1.850891%, 31.121826%)" offset="0.46875"/><stop stop-opacity="1" stop-color="rgb(17.285156%, 1.837158%, 30.891418%)" offset="0.472656"/><stop stop-opacity="1" stop-color="rgb(17.155457%, 1.823425%, 30.662537%)" offset="0.476562"/><stop stop-opacity="1" stop-color="rgb(17.027283%, 1.809692%, 30.432129%)" offset="0.480469"/><stop stop-opacity="1" stop-color="rgb(16.899109%, 1.795959%, 30.203247%)" offset="0.484375"/><stop stop-opacity="1" stop-color="rgb(16.770935%, 1.782227%, 29.972839%)" offset="0.488281"/><stop stop-opacity="1" stop-color="rgb(16.641235%, 1.768494%, 29.743958%)" offset="0.492188"/><stop stop-opacity="1" stop-color="rgb(16.513062%, 1.754761%, 29.51355%)" offset="0.496094"/><stop stop-opacity="1" stop-color="rgb(16.384888%, 1.741028%, 29.284668%)" offset="0.5"/><stop stop-opacity="1" stop-color="rgb(16.256714%, 1.727295%, 29.05426%)" offset="0.503906"/><stop stop-opacity="1" stop-color="rgb(16.12854%, 1.715088%, 28.825378%)" offset="0.507812"/><stop stop-opacity="1" stop-color="rgb(15.99884%, 1.701355%, 28.594971%)" offset="0.511719"/><stop stop-opacity="1" stop-color="rgb(15.870667%, 1.687622%, 28.364563%)" offset="0.515625"/><stop stop-opacity="1" stop-color="rgb(15.742493%, 1.673889%, 28.135681%)" offset="0.519531"/><stop stop-opacity="1" stop-color="rgb(15.614319%, 1.660156%, 27.905273%)" offset="0.523438"/><stop stop-opacity="1" stop-color="rgb(15.484619%, 1.646423%, 27.676392%)" offset="0.527344"/><stop stop-opacity="1" stop-color="rgb(15.356445%, 1.63269%, 27.445984%)" offset="0.53125"/><stop stop-opacity="1" stop-color="rgb(15.228271%, 1.618958%, 27.217102%)" offset="0.535156"/><stop stop-opacity="1" stop-color="rgb(15.100098%, 1.605225%, 26.986694%)" offset="0.539062"/><stop stop-opacity="1" stop-color="rgb(14.970398%, 1.591492%, 26.757812%)" offset="0.542969"/><stop stop-opacity="1" stop-color="rgb(14.842224%, 1.577759%, 26.527405%)" offset="0.546875"/><stop stop-opacity="1" stop-color="rgb(14.71405%, 1.564026%, 26.298523%)" offset="0.550781"/><stop stop-opacity="1" stop-color="rgb(14.585876%, 1.550293%, 26.068115%)" offset="0.554688"/><stop stop-opacity="1" stop-color="rgb(14.457703%, 1.53656%, 25.839233%)" offset="0.558594"/><stop stop-opacity="1" stop-color="rgb(14.328003%, 1.522827%, 25.608826%)" offset="0.5625"/><stop stop-opacity="1" stop-color="rgb(14.199829%, 1.509094%, 25.379944%)" offset="0.566406"/><stop stop-opacity="1" stop-color="rgb(14.071655%, 1.495361%, 25.149536%)" offset="0.570312"/><stop stop-opacity="1" stop-color="rgb(13.943481%, 1.481628%, 24.920654%)" offset="0.574219"/><stop stop-opacity="1" stop-color="rgb(13.813782%, 1.467896%, 24.690247%)" offset="0.578125"/><stop stop-opacity="1" stop-color="rgb(13.685608%, 1.454163%, 24.459839%)" offset="0.582031"/><stop stop-opacity="1" stop-color="rgb(13.557434%, 1.44043%, 24.230957%)" offset="0.585938"/><stop stop-opacity="1" stop-color="rgb(13.42926%, 1.426697%, 24.000549%)" offset="0.589844"/><stop stop-opacity="1" stop-color="rgb(13.301086%, 1.412964%, 23.771667%)" offset="0.59375"/><stop stop-opacity="1" stop-color="rgb(13.171387%, 1.399231%, 23.54126%)" offset="0.597656"/><stop stop-opacity="1" stop-color="rgb(13.043213%, 1.385498%, 23.312378%)" offset="0.601562"/><stop stop-opacity="1" stop-color="rgb(12.915039%, 1.373291%, 23.08197%)" offset="0.605469"/><stop stop-opacity="1" stop-color="rgb(12.786865%, 1.359558%, 22.853088%)" offset="0.609375"/><stop stop-opacity="1" stop-color="rgb(12.657166%, 1.345825%, 22.622681%)" offset="0.613281"/><stop stop-opacity="1" stop-color="rgb(12.528992%, 1.332092%, 22.393799%)" offset="0.617188"/><stop stop-opacity="1" stop-color="rgb(12.400818%, 1.318359%, 22.163391%)" offset="0.621094"/><stop stop-opacity="1" stop-color="rgb(12.272644%, 1.304626%, 21.934509%)" offset="0.625"/><stop stop-opacity="1" stop-color="rgb(12.14447%, 1.290894%, 21.704102%)" offset="0.628906"/><stop stop-opacity="1" stop-color="rgb(12.014771%, 1.277161%, 21.47522%)" offset="0.632812"/><stop stop-opacity="1" stop-color="rgb(11.886597%, 1.263428%, 21.244812%)" offset="0.636719"/><stop stop-opacity="1" stop-color="rgb(11.758423%, 1.249695%, 21.01593%)" offset="0.640625"/><stop stop-opacity="1" stop-color="rgb(11.630249%, 1.235962%, 20.785522%)" offset="0.644531"/><stop stop-opacity="1" stop-color="rgb(11.500549%, 1.222229%, 20.555115%)" offset="0.648438"/><stop stop-opacity="1" stop-color="rgb(11.372375%, 1.208496%, 20.326233%)" offset="0.652344"/><stop stop-opacity="1" stop-color="rgb(11.244202%, 1.194763%, 20.095825%)" offset="0.65625"/><stop stop-opacity="1" stop-color="rgb(11.116028%, 1.18103%, 19.866943%)" offset="0.660156"/><stop stop-opacity="1" stop-color="rgb(10.987854%, 1.167297%, 19.636536%)" offset="0.664062"/><stop stop-opacity="1" stop-color="rgb(10.858154%, 1.153564%, 19.407654%)" offset="0.667969"/><stop stop-opacity="1" stop-color="rgb(10.72998%, 1.139832%, 19.177246%)" offset="0.671875"/><stop stop-opacity="1" stop-color="rgb(10.601807%, 1.126099%, 18.948364%)" offset="0.675781"/><stop stop-opacity="1" stop-color="rgb(10.473633%, 1.112366%, 18.717957%)" offset="0.679688"/><stop stop-opacity="1" stop-color="rgb(10.343933%, 1.098633%, 18.489075%)" offset="0.683594"/><stop stop-opacity="1" stop-color="rgb(10.215759%, 1.0849%, 18.258667%)" offset="0.6875"/><stop stop-opacity="1" stop-color="rgb(10.087585%, 1.071167%, 18.029785%)" offset="0.691406"/><stop stop-opacity="1" stop-color="rgb(9.959412%, 1.057434%, 17.799377%)" offset="0.695312"/><stop stop-opacity="1" stop-color="rgb(9.831238%, 1.043701%, 17.570496%)" offset="0.699219"/><stop stop-opacity="1" stop-color="rgb(9.701538%, 1.031494%, 17.340088%)" offset="0.703125"/><stop stop-opacity="1" stop-color="rgb(9.573364%, 1.017761%, 17.111206%)" offset="0.707031"/><stop stop-opacity="1" stop-color="rgb(9.44519%, 1.004028%, 16.880798%)" offset="0.710938"/><stop stop-opacity="1" stop-color="rgb(9.317017%, 0.990295%, 16.651917%)" offset="0.714844"/><stop stop-opacity="1" stop-color="rgb(9.187317%, 0.976562%, 16.421509%)" offset="0.71875"/><stop stop-opacity="1" stop-color="rgb(9.059143%, 0.96283%, 16.191101%)" offset="0.722656"/><stop stop-opacity="1" stop-color="rgb(8.930969%, 0.949097%, 15.962219%)" offset="0.726562"/><stop stop-opacity="1" stop-color="rgb(8.802795%, 0.935364%, 15.731812%)" offset="0.730469"/><stop stop-opacity="1" stop-color="rgb(8.674622%, 0.921631%, 15.50293%)" offset="0.734375"/><stop stop-opacity="1" stop-color="rgb(8.544922%, 0.907898%, 15.272522%)" offset="0.738281"/><stop stop-opacity="1" stop-color="rgb(8.416748%, 0.894165%, 15.04364%)" offset="0.742188"/><stop stop-opacity="1" stop-color="rgb(8.288574%, 0.880432%, 14.813232%)" offset="0.746094"/><stop stop-opacity="1" stop-color="rgb(8.1604%, 0.866699%, 14.584351%)" offset="0.75"/><stop stop-opacity="1" stop-color="rgb(8.030701%, 0.852966%, 14.353943%)" offset="0.753906"/><stop stop-opacity="1" stop-color="rgb(7.902527%, 0.839233%, 14.125061%)" offset="0.757812"/><stop stop-opacity="1" stop-color="rgb(7.774353%, 0.8255%, 13.894653%)" offset="0.761719"/><stop stop-opacity="1" stop-color="rgb(7.646179%, 0.811768%, 13.665771%)" offset="0.765625"/><stop stop-opacity="1" stop-color="rgb(7.516479%, 0.798035%, 13.435364%)" offset="0.769531"/><stop stop-opacity="1" stop-color="rgb(7.388306%, 0.784302%, 13.206482%)" offset="0.773438"/><stop stop-opacity="1" stop-color="rgb(7.260132%, 0.770569%, 12.976074%)" offset="0.777344"/><stop stop-opacity="1" stop-color="rgb(7.131958%, 0.756836%, 12.747192%)" offset="0.78125"/><stop stop-opacity="1" stop-color="rgb(7.003784%, 0.743103%, 12.516785%)" offset="0.785156"/><stop stop-opacity="1" stop-color="rgb(6.874084%, 0.72937%, 12.286377%)" offset="0.789062"/><stop stop-opacity="1" stop-color="rgb(6.745911%, 0.715637%, 12.057495%)" offset="0.792969"/><stop stop-opacity="1" stop-color="rgb(6.617737%, 0.701904%, 11.827087%)" offset="0.796875"/><stop stop-opacity="1" stop-color="rgb(6.489563%, 0.689697%, 11.598206%)" offset="0.800781"/><stop stop-opacity="1" stop-color="rgb(6.359863%, 0.675964%, 11.367798%)" offset="0.804688"/><stop stop-opacity="1" stop-color="rgb(6.231689%, 0.662231%, 11.138916%)" offset="0.808594"/><stop stop-opacity="1" stop-color="rgb(6.103516%, 0.648499%, 10.908508%)" offset="0.8125"/><stop stop-opacity="1" stop-color="rgb(5.975342%, 0.634766%, 10.679626%)" offset="0.816406"/><stop stop-opacity="1" stop-color="rgb(5.847168%, 0.621033%, 10.449219%)" offset="0.820312"/><stop stop-opacity="1" stop-color="rgb(5.717468%, 0.6073%, 10.220337%)" offset="0.824219"/><stop stop-opacity="1" stop-color="rgb(5.589294%, 0.593567%, 9.989929%)" offset="0.828125"/><stop stop-opacity="1" stop-color="rgb(5.461121%, 0.579834%, 9.761047%)" offset="0.832031"/><stop stop-opacity="1" stop-color="rgb(5.332947%, 0.566101%, 9.53064%)" offset="0.835938"/><stop stop-opacity="1" stop-color="rgb(5.203247%, 0.552368%, 9.301758%)" offset="0.839844"/><stop stop-opacity="1" stop-color="rgb(5.075073%, 0.538635%, 9.07135%)" offset="0.84375"/><stop stop-opacity="1" stop-color="rgb(4.946899%, 0.524902%, 8.842468%)" offset="0.847656"/><stop stop-opacity="1" stop-color="rgb(4.818726%, 0.511169%, 8.612061%)" offset="0.851562"/><stop stop-opacity="1" stop-color="rgb(4.690552%, 0.497437%, 8.383179%)" offset="0.855469"/><stop stop-opacity="1" stop-color="rgb(4.560852%, 0.483704%, 8.152771%)" offset="0.859375"/><stop stop-opacity="1" stop-color="rgb(4.432678%, 0.469971%, 7.922363%)" offset="0.863281"/><stop stop-opacity="1" stop-color="rgb(4.304504%, 0.456238%, 7.693481%)" offset="0.867188"/><stop stop-opacity="1" stop-color="rgb(4.176331%, 0.442505%, 7.463074%)" offset="0.871094"/><stop stop-opacity="1" stop-color="rgb(4.046631%, 0.428772%, 7.234192%)" offset="0.875"/><stop stop-opacity="1" stop-color="rgb(3.918457%, 0.415039%, 7.003784%)" offset="0.878906"/><stop stop-opacity="1" stop-color="rgb(3.790283%, 0.401306%, 6.774902%)" offset="0.882812"/><stop stop-opacity="1" stop-color="rgb(3.662109%, 0.387573%, 6.544495%)" offset="0.886719"/><stop stop-opacity="1" stop-color="rgb(3.533936%, 0.37384%, 6.315613%)" offset="0.890625"/><stop stop-opacity="1" stop-color="rgb(3.404236%, 0.360107%, 6.085205%)" offset="0.894531"/><stop stop-opacity="1" stop-color="rgb(3.276062%, 0.3479%, 5.856323%)" offset="0.898438"/><stop stop-opacity="1" stop-color="rgb(3.147888%, 0.334167%, 5.625916%)" offset="0.902344"/><stop stop-opacity="1" stop-color="rgb(3.019714%, 0.320435%, 5.397034%)" offset="0.90625"/><stop stop-opacity="1" stop-color="rgb(2.890015%, 0.306702%, 5.166626%)" offset="0.910156"/><stop stop-opacity="1" stop-color="rgb(2.761841%, 0.292969%, 4.937744%)" offset="0.914062"/><stop stop-opacity="1" stop-color="rgb(2.633667%, 0.279236%, 4.707336%)" offset="0.917969"/><stop stop-opacity="1" stop-color="rgb(2.505493%, 0.265503%, 4.478455%)" offset="0.921875"/><stop stop-opacity="1" stop-color="rgb(2.377319%, 0.25177%, 4.248047%)" offset="0.925781"/><stop stop-opacity="1" stop-color="rgb(2.24762%, 0.238037%, 4.017639%)" offset="0.929688"/><stop stop-opacity="1" stop-color="rgb(2.119446%, 0.224304%, 3.788757%)" offset="0.933594"/><stop stop-opacity="1" stop-color="rgb(1.991272%, 0.210571%, 3.55835%)" offset="0.9375"/><stop stop-opacity="1" stop-color="rgb(1.863098%, 0.196838%, 3.329468%)" offset="0.941406"/><stop stop-opacity="1" stop-color="rgb(1.733398%, 0.183105%, 3.09906%)" offset="0.945312"/><stop stop-opacity="1" stop-color="rgb(1.605225%, 0.169373%, 2.870178%)" offset="0.949219"/><stop stop-opacity="1" stop-color="rgb(1.477051%, 0.15564%, 2.639771%)" offset="0.953125"/><stop stop-opacity="1" stop-color="rgb(1.348877%, 0.141907%, 2.410889%)" offset="0.957031"/><stop stop-opacity="1" stop-color="rgb(1.220703%, 0.128174%, 2.180481%)" offset="0.960938"/><stop stop-opacity="1" stop-color="rgb(1.091003%, 0.114441%, 1.951599%)" offset="0.964844"/><stop stop-opacity="1" stop-color="rgb(0.96283%, 0.100708%, 1.721191%)" offset="0.96875"/><stop stop-opacity="1" stop-color="rgb(0.834656%, 0.0869751%, 1.49231%)" offset="0.972656"/><stop stop-opacity="1" stop-color="rgb(0.706482%, 0.0732422%, 1.261902%)" offset="0.976562"/><stop stop-opacity="1" stop-color="rgb(0.576782%, 0.0595093%, 1.03302%)" offset="0.980469"/><stop stop-opacity="1" stop-color="rgb(0.448608%, 0.0457764%, 0.802612%)" offset="0.984375"/><stop stop-opacity="1" stop-color="rgb(0.320435%, 0.0320435%, 0.57373%)" offset="0.988281"/><stop stop-opacity="1" stop-color="rgb(0.192261%, 0.0183105%, 0.343323%)" offset="0.992188"/><stop stop-opacity="1" stop-color="rgb(0.0640869%, 0.00610352%, 0.114441%)" offset="0.996094"/><stop stop-opacity="1" stop-color="rgb(0%, 0%, 0%)" offset="1"/></radialGradient><clipPath id="fc6560b3cb"><path d="M 11 5.609375 L 26 5.609375 L 26 20 L 11 20 Z M 11 5.609375 " clip-rule="nonzero"/></clipPath><clipPath id="57a44ce629"><path d="M 6.691406 6 L 30.042969 6 L 30.042969 24 L 6.691406 24 Z M 6.691406 6 " clip-rule="nonzero"/></clipPath><clipPath id="b04505835c"><path d="M 6.691406 20 L 30.042969 20 L 30.042969 21 L 6.691406 21 Z M 6.691406 20 " clip-rule="nonzero"/></clipPath><clipPath id="ed0a80657b"><path d="M 13 27 L 24 27 L 24 29.6875 L 13 29.6875 Z M 13 27 " clip-rule="nonzero"/></clipPath></defs><g clip-path="url(#84f95c050b)"><path fill="#ffffff" d="M 0.488281 0 L 35.511719 0 L 35.511719 35.027344 L 0.488281 35.027344 Z M 0.488281 0 " fill-opacity="1" fill-rule="nonzero"/></g><g clip-path="url(#f1f3082124)"><g clip-path="url(#7637742e2d)"><path fill="url(#9c4f3f8004)" d="M 0.488281 0 L 0.488281 35.027344 L 35.511719 35.027344 L 35.511719 0 Z M 0.488281 0 " fill-rule="nonzero"/></g></g><g clip-path="url(#fc6560b3cb)"><path fill="#ffffff" d="M 12.304688 6.15625 C 11.992188 6.15625 11.734375 6.410156 11.734375 6.730469 L 11.734375 18.261719 C 11.734375 18.574219 11.984375 18.832031 12.304688 18.832031 L 24.453125 18.832031 C 24.765625 18.832031 25.023438 18.578125 25.023438 18.261719 L 25.023438 6.722656 C 25.023438 6.410156 24.769531 6.152344 24.453125 6.152344 Z M 24.453125 19.375 L 12.304688 19.375 C 11.691406 19.375 11.1875 18.871094 11.1875 18.257812 L 11.1875 6.722656 C 11.1875 6.109375 11.691406 5.609375 12.304688 5.609375 L 24.453125 5.609375 C 25.066406 5.609375 25.566406 6.109375 25.566406 6.722656 L 25.566406 18.253906 C 25.5625 18.871094 25.066406 19.375 24.453125 19.375 Z M 24.453125 19.375 " fill-opacity="1" fill-rule="evenodd"/></g><path fill="#ffffff" d="M 25.292969 9.195312 L 11.460938 9.195312 C 11.3125 9.195312 11.1875 9.070312 11.1875 8.921875 C 11.1875 8.769531 11.3125 8.644531 11.460938 8.644531 L 25.292969 8.644531 C 25.445312 8.644531 25.566406 8.769531 25.566406 8.921875 C 25.5625 9.078125 25.445312 9.195312 25.292969 9.195312 Z M 25.292969 9.195312 " fill-opacity="1" fill-rule="evenodd"/><path fill="#ffffff" d="M 13.496094 7.167969 C 13.367188 7.167969 13.257812 7.273438 13.257812 7.40625 C 13.257812 7.535156 13.367188 7.640625 13.496094 7.640625 L 16.355469 7.640625 C 16.488281 7.640625 16.59375 7.535156 16.59375 7.40625 C 16.59375 7.273438 16.488281 7.167969 16.355469 7.167969 Z M 16.355469 8.1875 L 13.496094 8.1875 C 13.066406 8.1875 12.714844 7.835938 12.714844 7.402344 C 12.714844 6.972656 13.066406 6.621094 13.496094 6.621094 L 16.355469 6.621094 C 16.789062 6.621094 17.140625 6.972656 17.140625 7.402344 C 17.140625 7.835938 16.789062 8.1875 16.355469 8.1875 Z M 16.355469 8.1875 " fill-opacity="1" fill-rule="evenodd"/><path fill="#ffffff" d="M 18.957031 7.675781 L 18.144531 7.675781 C 17.992188 7.675781 17.867188 7.550781 17.867188 7.398438 C 17.867188 7.246094 17.992188 7.125 18.144531 7.125 L 18.957031 7.125 C 19.109375 7.125 19.234375 7.246094 19.234375 7.398438 C 19.234375 7.554688 19.109375 7.675781 18.957031 7.675781 Z M 18.957031 7.675781 " fill-opacity="1" fill-rule="evenodd"/><path fill="#ffffff" d="M 21.050781 7.675781 L 20.238281 7.675781 C 20.085938 7.675781 19.960938 7.550781 19.960938 7.398438 C 19.960938 7.246094 20.085938 7.125 20.238281 7.125 L 21.050781 7.125 C 21.203125 7.125 21.328125 7.246094 21.328125 7.398438 C 21.320312 7.554688 21.203125 7.675781 21.050781 7.675781 Z M 21.050781 7.675781 " fill-opacity="1" fill-rule="evenodd"/><path fill="#ffffff" d="M 23.140625 7.675781 L 22.332031 7.675781 C 22.179688 7.675781 22.054688 7.550781 22.054688 7.398438 C 22.054688 7.246094 22.179688 7.125 22.332031 7.125 L 23.144531 7.125 C 23.296875 7.125 23.421875 7.246094 23.421875 7.398438 C 23.414062 7.554688 23.292969 7.675781 23.140625 7.675781 Z M 23.140625 7.675781 " fill-opacity="1" fill-rule="evenodd"/><path fill="#ffffff" d="M 18.878906 13.292969 C 18.769531 13.292969 18.660156 13.226562 18.625 13.113281 L 17.625 10.441406 C 17.570312 10.300781 17.640625 10.144531 17.785156 10.089844 C 17.925781 10.039062 18.082031 10.113281 18.136719 10.253906 L 19.136719 12.925781 C 19.191406 13.066406 19.121094 13.222656 18.972656 13.273438 C 18.941406 13.285156 18.910156 13.292969 18.878906 13.292969 Z M 18.878906 13.292969 " fill-opacity="1" fill-rule="evenodd"/><path fill="#ffffff" d="M 16.550781 13.292969 C 16.496094 13.292969 16.441406 13.273438 16.398438 13.242188 L 14.417969 11.914062 C 14.34375 11.867188 14.300781 11.78125 14.300781 11.6875 C 14.300781 11.597656 14.34375 11.511719 14.417969 11.460938 L 16.398438 10.128906 C 16.523438 10.042969 16.695312 10.082031 16.777344 10.207031 C 16.863281 10.328125 16.828125 10.496094 16.703125 10.582031 L 15.058594 11.6875 L 16.703125 12.796875 C 16.828125 12.882812 16.859375 13.046875 16.777344 13.171875 C 16.722656 13.253906 16.636719 13.292969 16.550781 13.292969 Z M 16.550781 13.292969 " fill-opacity="1" fill-rule="evenodd"/><path fill="#ffffff" d="M 20.203125 13.292969 C 20.117188 13.292969 20.03125 13.25 19.976562 13.171875 C 19.890625 13.050781 19.929688 12.875 20.054688 12.796875 L 21.699219 11.6875 L 20.054688 10.582031 C 19.929688 10.496094 19.894531 10.328125 19.976562 10.207031 C 20.0625 10.082031 20.230469 10.046875 20.355469 10.128906 L 22.335938 11.460938 C 22.410156 11.511719 22.453125 11.597656 22.453125 11.6875 C 22.453125 11.78125 22.410156 11.867188 22.335938 11.914062 L 20.355469 13.25 C 20.3125 13.28125 20.257812 13.292969 20.203125 13.292969 Z M 20.203125 13.292969 " fill-opacity="1" fill-rule="evenodd"/><path fill="#ffffff" d="M 23.011719 14.84375 L 17.148438 14.84375 C 17 14.84375 16.875 14.722656 16.875 14.570312 C 16.875 14.417969 17 14.292969 17.148438 14.292969 L 23.011719 14.292969 C 23.160156 14.292969 23.285156 14.417969 23.285156 14.570312 C 23.28125 14.722656 23.160156 14.84375 23.011719 14.84375 Z M 23.011719 14.84375 " fill-opacity="1" fill-rule="evenodd"/><path fill="#ffffff" d="M 23.011719 16.394531 L 17.148438 16.394531 C 17 16.394531 16.875 16.269531 16.875 16.117188 C 16.875 15.96875 17 15.84375 17.148438 15.84375 L 23.011719 15.84375 C 23.160156 15.84375 23.285156 15.96875 23.285156 16.117188 C 23.28125 16.273438 23.160156 16.394531 23.011719 16.394531 Z M 23.011719 16.394531 " fill-opacity="1" fill-rule="evenodd"/><path fill="#ffffff" d="M 23.011719 17.941406 L 17.511719 17.941406 C 17.359375 17.941406 17.234375 17.820312 17.234375 17.667969 C 17.234375 17.515625 17.359375 17.390625 17.511719 17.390625 L 23.011719 17.390625 C 23.160156 17.390625 23.285156 17.515625 23.285156 17.667969 C 23.28125 17.824219 23.160156 17.941406 23.011719 17.941406 Z M 23.011719 17.941406 " fill-opacity="1" fill-rule="evenodd"/><g clip-path="url(#57a44ce629)"><path fill="#ffffff" d="M 8.359375 7.054688 C 7.738281 7.054688 7.238281 7.554688 7.238281 8.175781 L 7.238281 22.3125 C 7.238281 22.933594 7.738281 23.4375 8.359375 23.4375 L 28.390625 23.4375 C 29.011719 23.4375 29.511719 22.933594 29.511719 22.3125 L 29.511719 8.175781 C 29.511719 7.554688 29.011719 7.054688 28.390625 7.054688 L 25.5625 7.054688 L 25.5625 18.257812 C 25.5625 18.871094 25.0625 19.375 24.445312 19.375 L 12.300781 19.375 C 11.683594 19.375 11.183594 18.871094 11.183594 18.257812 L 11.183594 7.054688 Z M 28.394531 23.980469 L 8.359375 23.980469 C 7.441406 23.980469 6.691406 23.230469 6.691406 22.3125 L 6.691406 8.175781 C 6.691406 7.257812 7.441406 6.507812 8.359375 6.507812 L 11.460938 6.507812 C 11.613281 6.507812 11.738281 6.632812 11.738281 6.785156 L 11.738281 18.261719 C 11.738281 18.574219 11.992188 18.832031 12.308594 18.832031 L 24.457031 18.832031 C 24.769531 18.832031 25.027344 18.582031 25.027344 18.261719 L 25.027344 6.785156 C 25.027344 6.632812 25.152344 6.507812 25.304688 6.507812 L 28.40625 6.507812 C 29.324219 6.507812 30.074219 7.257812 30.074219 8.175781 L 30.074219 22.3125 C 30.0625 23.230469 29.3125 23.980469 28.394531 23.980469 Z M 28.394531 23.980469 " fill-opacity="1" fill-rule="evenodd"/></g><g clip-path="url(#b04505835c)"><path fill="#ffffff" d="M 29.789062 20.75 L 6.96875 20.75 C 6.816406 20.75 6.691406 20.625 6.691406 20.472656 C 6.691406 20.324219 6.816406 20.199219 6.96875 20.199219 L 29.789062 20.199219 C 29.9375 20.199219 30.0625 20.324219 30.0625 20.472656 C 30.0625 20.625 29.9375 20.75 29.789062 20.75 Z M 29.789062 20.75 " fill-opacity="1" fill-rule="evenodd"/></g><path fill="#ffffff" d="M 14.765625 27.722656 C 14.714844 27.722656 14.671875 27.710938 14.628906 27.683594 C 14.5 27.609375 14.457031 27.441406 14.527344 27.3125 L 16.6875 23.570312 C 16.761719 23.441406 16.929688 23.398438 17.058594 23.46875 C 17.1875 23.542969 17.230469 23.710938 17.160156 23.839844 L 15.003906 27.582031 C 14.949219 27.671875 14.855469 27.722656 14.765625 27.722656 Z M 14.765625 27.722656 " fill-opacity="1" fill-rule="evenodd"/><path fill="#ffffff" d="M 21.996094 27.722656 C 21.902344 27.722656 21.8125 27.671875 21.757812 27.585938 L 19.601562 23.847656 C 19.523438 23.714844 19.566406 23.550781 19.699219 23.472656 C 19.828125 23.398438 19.992188 23.441406 20.070312 23.578125 L 22.226562 27.316406 C 22.304688 27.445312 22.261719 27.613281 22.132812 27.6875 C 22.085938 27.710938 22.039062 27.722656 21.996094 27.722656 Z M 21.996094 27.722656 " fill-opacity="1" fill-rule="evenodd"/><g clip-path="url(#ed0a80657b)"><path fill="#ffffff" d="M 13.960938 28.871094 L 22.800781 28.871094 L 22.800781 28.292969 C 22.800781 27.972656 22.539062 27.714844 22.222656 27.714844 L 14.539062 27.714844 C 14.21875 27.714844 13.960938 27.972656 13.960938 28.292969 Z M 23.070312 29.414062 L 13.6875 29.414062 C 13.535156 29.414062 13.410156 29.289062 13.410156 29.140625 L 13.410156 28.292969 C 13.410156 27.671875 13.914062 27.171875 14.53125 27.171875 L 22.214844 27.171875 C 22.835938 27.171875 23.339844 27.671875 23.339844 28.292969 L 23.339844 29.140625 C 23.34375 29.296875 23.21875 29.414062 23.070312 29.414062 Z M 23.070312 29.414062 " fill-opacity="1" fill-rule="evenodd"/></g><path fill="#ffffff" d="M 14.050781 17.398438 L 16.164062 17.398438 C 16.042969 16.929688 15.613281 16.582031 15.105469 16.582031 C 14.601562 16.582031 14.175781 16.929688 14.050781 17.398438 Z M 16.46875 17.941406 L 13.746094 17.941406 C 13.59375 17.941406 13.46875 17.820312 13.46875 17.667969 C 13.46875 16.765625 14.203125 16.03125 15.105469 16.03125 C 16.007812 16.03125 16.742188 16.765625 16.742188 17.667969 C 16.746094 17.824219 16.621094 17.941406 16.46875 17.941406 Z M 16.46875 17.941406 " fill-opacity="1" fill-rule="evenodd"/><path fill="#ffffff" d="M 15.109375 14.84375 C 14.78125 14.84375 14.511719 15.113281 14.511719 15.445312 C 14.511719 15.773438 14.78125 16.042969 15.109375 16.042969 C 15.441406 16.042969 15.710938 15.773438 15.710938 15.445312 C 15.703125 15.109375 15.4375 14.84375 15.109375 14.84375 Z M 15.109375 16.582031 C 14.480469 16.582031 13.964844 16.070312 13.964844 15.4375 C 13.964844 14.808594 14.480469 14.292969 15.109375 14.292969 C 15.742188 14.292969 16.253906 14.808594 16.253906 15.4375 C 16.25 16.070312 15.738281 16.582031 15.109375 16.582031 Z M 15.109375 16.582031 " fill-opacity="1" fill-rule="evenodd"/></svg>